# xmcd CD database file
#
# Track frame offsets:
#	150
#	35500
#	49930
#	92597
#	163492
#	176370
#	209955
#
# Disc length: 2971 seconds
#
# Revision: 4
# Processed by: cddbd v1.5.2PL0 Copyright (c) Steve Scherf et al.
# Submitted via: CDex 1.51
#
DISCID=640b9907
DTITLE=Carlos Santana, John McLaughlin - Love Devotion Surrender
DYEAR=1973
DGENRE=Progressive Rock
TTITLE0=A Love Supreme
TTITLE1=Naima
TTITLE2=The Life Devine
TTITLE3=Let Us Go Into The House Of The Lord
TTITLE4=Meditation
TTITLE5=A Love Supreme (Alternate - Take 2)
TTITLE6=Naima (Alternate - Take 4)
EXTD=2003 Expanded and remastered edition YEAR: 1973
EXTT0=
EXTT1=
EXTT2=
EXTT3=
EXTT4=
EXTT5=
EXTT6=
PLAYORDER=
